<?xml version="1.0" encoding="UTF-8"?>
<svg width="30px" height="30px" viewBox="0 0 30 30" version="1.1" xmlns="http://www.w3.org/2000/svg" xmlns:xlink="http://www.w3.org/1999/xlink">
    <!-- Generator: Sketch 44 (41411) - http://www.bohemiancoding.com/sketch -->
    <title>close</title>
    <desc>Created with Sketch.</desc>
    <defs></defs>
    <g id="-" stroke="none" stroke-width="1" fill="none" fill-rule="evenodd">
        <g id="close">
            <g id="Group-2">
                <rect id="Button" x="0" y="0" width="30" height="30"></rect>
                <g id="fi-x" transform="translate(8.000000, 8.000000)" fill="#FF7400">
                    <g id="Layer_1">
                        <path d="M13.8747456,10.7721916 L10.2272619,7.1250969 L13.8735788,3.47839111 C14.0246821,3.32728774 14.0246821,3.08244972 13.8735788,2.93134635 L11.3192123,0.376396444 C11.1681089,0.225293074 10.9230764,0.225293074 10.771973,0.376396444 L7.12507277,4.02310223 L3.47875592,0.376396444 C3.33368113,0.231127181 3.07678596,0.231127181 2.93151669,0.376396444 L0.376566786,2.93095741 C0.30402939,3.00349481 0.263190641,3.10209121 0.263190641,3.20457703 C0.263190641,3.30706284 0.30402939,3.40565925 0.376566786,3.47819664 L4.02346704,7.1250969 L0.375983376,10.7723861 C0.303445979,10.845118 0.26260723,10.9435199 0.26260723,11.0460057 C0.26260723,11.148686 0.303445979,11.2472824 0.375983376,11.3196253 L2.93054434,13.8743808 C3.00308174,13.9469182 3.10187262,13.9877569 3.20474737,13.9877569 C3.30684424,13.9877569 3.40524618,13.9469182 3.47778357,13.8743808 L7.12507277,10.2270916 L10.7725564,13.8741863 C10.8482054,13.9496407 10.9468018,13.9875624 11.0461761,13.9875624 C11.1455503,13.9875624 11.2443412,13.9496407 11.3199901,13.8741863 L13.87494,11.3194309 C14.0258489,11.1683275 14.0258489,10.9234895 13.8747456,10.7721916 L13.8747456,10.7721916 Z" id="Shape"></path>
                    </g>
                </g>
            </g>
        </g>
    </g>
</svg>