<?xml version="1.0" encoding="UTF-8"?>
<svg width="319px" height="306px" viewBox="0 0 319 306" version="1.1" xmlns="http://www.w3.org/2000/svg" xmlns:xlink="http://www.w3.org/1999/xlink">
    <!-- Generator: sketchtool 41.2 (35397) - http://www.bohemiancoding.com/sketch -->
    <title>1C0B5A24-71BA-4E76-A1DF-A8AF4B594EF5</title>
    <desc>Created with sketchtool.</desc>
    <defs>
        <ellipse id="path-1" cx="56.9699781" cy="143.091828" rx="3.22714599" ry="3.23394336"></ellipse>
        <mask id="mask-2" maskContentUnits="userSpaceOnUse" maskUnits="objectBoundingBox" x="0" y="0" width="6.45429197" height="6.46788672" fill="white">
            <use xlink:href="#path-1"></use>
        </mask>
        <ellipse id="path-3" cx="46.2346642" cy="145.997863" rx="3.22714599" ry="3.23394336"></ellipse>
        <mask id="mask-4" maskContentUnits="userSpaceOnUse" maskUnits="objectBoundingBox" x="0" y="0" width="6.45429197" height="6.46788672" fill="white">
            <use xlink:href="#path-3"></use>
        </mask>
        <ellipse id="path-5" cx="35.4989781" cy="63.5992695" rx="3.22714599" ry="3.23394336"></ellipse>
        <mask id="mask-6" maskContentUnits="userSpaceOnUse" maskUnits="objectBoundingBox" x="0" y="0" width="6.45429197" height="6.46788672" fill="white">
            <use xlink:href="#path-5"></use>
        </mask>
        <ellipse id="path-7" cx="47.4262774" cy="75.3662871" rx="3.22714599" ry="3.23394336"></ellipse>
        <mask id="mask-8" maskContentUnits="userSpaceOnUse" maskUnits="objectBoundingBox" x="0" y="0" width="6.45429197" height="6.46788672" fill="white">
            <use xlink:href="#path-7"></use>
        </mask>
        <ellipse id="path-9" cx="60.5496569" cy="72.5635859" rx="3.22714599" ry="3.23394336"></ellipse>
        <mask id="mask-10" maskContentUnits="userSpaceOnUse" maskUnits="objectBoundingBox" x="0" y="0" width="6.45429197" height="6.46788672" fill="white">
            <use xlink:href="#path-9"></use>
        </mask>
        <ellipse id="path-11" cx="65.3213212" cy="61.8056602" rx="3.22714599" ry="3.23394336"></ellipse>
        <mask id="mask-12" maskContentUnits="userSpaceOnUse" maskUnits="objectBoundingBox" x="0" y="0" width="6.45429197" height="6.46788672" fill="white">
            <use xlink:href="#path-11"></use>
        </mask>
    </defs>
    <g id="Symbols" stroke="none" stroke-width="1" fill="none" fill-rule="evenodd">
        <g id="end_time" transform="translate(-14.000000, -9.000000)" fill="#FFFFFF">
            <g id="Group-5">
                <g id="hourglass" transform="translate(112.000000, 67.000000)">
                    <path d="M98.4646204,161.119691 L95.6767445,161.119691 L95.6767445,122.716754 C95.6767445,114.407508 90.4278394,106.673873 81.979708,102.534545 L72.7446131,98.0027715 C71.5295474,97.4077617 70.8322993,96.4956621 70.8322993,95.5011191 C70.8322993,94.5062031 71.5291752,93.5944766 72.7453577,92.9983477 L81.9789635,88.4714238 C90.4278394,84.3272461 95.6763723,76.5924922 95.6763723,68.2851113 L95.6763723,29.8803086 L98.4642482,29.8803086 C100.24627,29.8803086 101.691394,28.4325137 101.691394,26.6463652 L101.691394,3.23394336 C101.691394,1.44779492 100.246642,0 98.4642482,0 L3.5350073,0 C1.7529854,0 0.307861314,1.44779492 0.307861314,3.23394336 L0.307861314,26.6467383 C0.307861314,28.4325137 1.75261314,29.8806816 3.5350073,29.8806816 L6.32288321,29.8806816 L6.32288321,68.2851113 C6.32288321,76.5936113 11.569927,84.3283652 20.0176861,88.4717969 L29.2550146,92.9987207 C30.468219,93.5937305 31.1647226,94.5058301 31.1647226,95.5007461 C31.1647226,96.4960352 30.4685912,97.4077617 29.2542701,98.0031445 L20.0184307,102.533053 C11.5714161,106.672008 6.32362774,114.405643 6.32362774,122.716381 L6.32362774,161.118945 L3.53575182,161.118945 C1.75372993,161.118945 0.308605839,162.56674 0.308605839,164.352889 L0.308605839,187.765684 C0.308605839,189.551459 1.75335766,190.999627 3.53575182,190.999627 L98.465365,190.999627 C100.247387,190.999627 101.692511,189.551832 101.692511,187.765684 L101.692511,164.353262 C101.691766,162.567486 100.247015,161.119691 98.4646204,161.119691 Z M6.76178102,6.46788672 L95.2371022,6.46788672 L95.2371022,23.4127949 L6.76178102,23.4127949 L6.76178102,6.46788672 Z M12.7771752,122.716381 C12.7771752,116.89573 16.6379124,111.388813 22.8543285,108.343258 L32.0905401,103.812977 C35.5522117,102.115986 37.6186423,99.0088789 37.6186423,95.5007461 C37.6186423,91.9926133 35.5522117,88.8855059 32.0905401,87.1885156 L22.8543285,82.6619648 C16.6386569,79.6130527 12.7771752,74.1042695 12.7771752,68.2847383 L12.7771752,29.8821738 L89.2224526,29.8821738 L89.2224526,68.2847383 C89.2224526,74.1031504 85.3594818,79.6119336 79.1419489,82.6615918 L69.9098321,87.1877695 C66.445927,88.8843867 64.377635,91.9918672 64.377635,95.500373 C64.377635,99.0088789 66.445927,102.116359 69.9075985,103.811857 L79.1423212,108.343631 C85.359854,111.389932 89.2220803,116.89685 89.2220803,122.716008 L89.2220803,161.118945 L12.7771752,161.118945 L12.7771752,122.716381 Z M95.2371022,184.532113 L6.76178102,184.532113 L6.76178102,167.587205 L95.2371022,167.587205 L95.2371022,184.532113 L95.2371022,184.532113 Z" id="Shape"></path>
                    <path d="M77.607854,111.481701 L68.3783431,106.952912 C63.7600511,104.690756 60.8910219,100.302979 60.8910219,95.5011191 C60.8910219,90.6996328 63.7589343,86.3118555 68.3761095,84.0500723 L77.6082263,79.5238945 C82.6214891,77.0647695 85.7350949,72.7583164 85.7350949,68.2851113 L85.7350949,36.6097012 C85.7350949,34.8239258 84.2903431,33.3757578 82.5079489,33.3757578 L19.490562,33.3757578 C17.7085401,33.3757578 16.2634161,34.8235527 16.2634161,36.6097012 L16.2634161,68.2847383 C16.2634161,72.7594355 19.3747883,77.0651426 24.3843285,79.5227754 L33.6224015,84.0496992 C38.2380876,86.3126016 41.1048832,90.7003789 41.1048832,95.5011191 C41.1048832,100.301486 38.2388321,104.689264 33.6242628,106.951047 L24.3847007,111.48282 C19.3759051,113.937096 16.2641606,118.241684 16.2641606,122.716754 L16.2641606,154.391418 C16.2641606,156.177193 17.7089124,157.625361 19.4913066,157.625361 L82.5090657,157.625361 C84.2910876,157.625361 85.7362117,156.177566 85.7362117,154.391418 L85.7362117,122.716754 C85.7358394,118.242803 82.6207445,113.937469 77.607854,111.481701 Z M36.4590438,78.2394941 L27.2213431,73.7129434 C24.4855839,72.3710937 22.7180803,70.24025 22.7180803,68.2847383 L22.7180803,39.8436445 L79.2811752,39.8436445 L79.2811752,68.2847383 C79.2811752,70.2391309 77.5106934,72.3707207 74.7715839,73.7140625 L65.5413285,78.2391211 C60.7897664,80.5665605 57.2882628,84.4634082 55.5885109,89.0660605 C54.8704161,90.9809102 53.0284599,92.2664297 50.9977664,92.2664297 C48.9711679,92.2664297 47.1321898,90.9846406 46.4111168,89.0750137 C44.712854,84.46975 41.2117226,80.5695449 36.4590438,78.2394941 Z M27.6323212,151.157475 L42.3314891,136.426973 C47.1105985,131.63817 54.8867956,131.637797 59.6659051,136.426973 L74.3654453,151.157475 L27.6323212,151.157475 Z M79.2811752,146.937195 L64.2298467,131.854164 C56.9346131,124.543564 45.0642701,124.543564 37.7679197,131.854164 L22.717708,146.936449 L22.717708,122.717127 C22.717708,120.762734 24.4844672,118.633383 27.2202263,117.293025 L36.4609051,112.761252 C42.474438,109.813436 46.4859416,104.351656 47.3726715,98.1255039 C48.5233358,98.5183223 49.7439854,98.7350625 50.9981387,98.7350625 C52.252292,98.7350625 53.4740584,98.5220527 54.6243504,98.1288613 C55.5125693,104.355014 59.5263066,109.816047 65.542073,112.762744 L74.7712117,117.29116 C77.5110657,118.633383 79.2811752,120.76348 79.2811752,122.716754 L79.2811752,146.937195 Z" id="Shape"></path>
                    <use id="Oval" stroke="#FF7400" mask="url(#mask-2)" stroke-width="2" xlink:href="#path-1"></use>
                    <use id="Oval" stroke="#FF7400" mask="url(#mask-4)" stroke-width="2" xlink:href="#path-3"></use>
                    <use id="Oval" stroke="#FF7400" mask="url(#mask-6)" stroke-width="2" xlink:href="#path-5"></use>
                    <use id="Oval" stroke="#FF7400" mask="url(#mask-8)" stroke-width="2" xlink:href="#path-7"></use>
                    <use id="Oval" stroke="#FF7400" mask="url(#mask-10)" stroke-width="2" xlink:href="#path-9"></use>
                    <use id="Oval" stroke="#FF7400" mask="url(#mask-12)" stroke-width="2" xlink:href="#path-11"></use>
                </g>
            </g>
        </g>
    </g>
</svg>