<?xml version="1.0" encoding="UTF-8"?>
<svg width="30px" height="30px" viewBox="0 0 30 30" version="1.1" xmlns="http://www.w3.org/2000/svg" xmlns:xlink="http://www.w3.org/1999/xlink">
    <!-- Generator: Sketch 44 (41411) - http://www.bohemiancoding.com/sketch -->
    <title>results</title>
    <desc>Created with Sketch.</desc>
    <defs></defs>
    <g id="-" stroke="none" stroke-width="1" fill="none" fill-rule="evenodd">
        <g id="results">
            <g id="WIN_1">
                <g id="Group-2">
                    <g id="Default-Button-close-Multibook">
                        <rect id="Button" x="0" y="0" width="30" height="30"></rect>
                    </g>
                </g>
                <g id="fi-crown" transform="translate(5.000000, 6.000000)" fill="#FF7400">
                    <g id="Layer_1">
                        <g id="Group">
                            <path d="M2.535,7.50481967 L2.53,7.49980328 L2.52941176,7.50039344 C2.36117647,7.3555082 2.14529412,7.26491803 1.90647059,7.26491803 C1.38323529,7.26491803 0.959705882,7.68511475 0.947647059,8.20711475 L0.924117647,8.20711475 L0.924117647,16.8347213 L0.954411765,16.8347213 C1,17.3242623 1.40617647,17.7096393 1.90647059,17.7096393 C1.91,17.7096393 1.91352941,17.7087541 1.91705882,17.708459 L1.91705882,17.7096393 L18.0826471,17.7096393 L18.0826471,17.6872131 C18.0864706,17.6872131 18.0897059,17.6883934 18.0935294,17.6883934 C18.5861765,17.6883934 18.9879412,17.3142295 19.0432353,16.8347213 L19.0541176,16.8347213 L19.0541176,16.725541 L19.0541176,16.7240656 L19.0541176,16.7225902 L19.0541176,8.38622951 C19.0676471,8.32160656 19.0755882,8.25462295 19.0755882,8.18586885 C19.0755882,7.65383607 18.6452941,7.22213115 18.1147059,7.22213115 C17.8864706,7.22213115 17.6797059,7.30534426 17.5147059,7.43842623 L17.5120588,7.43577049 L17.4852941,7.46262295 C17.4523529,7.4912459 17.4220588,7.52193443 17.3935294,7.55468852 L15.3697059,9.58514754 L10.7073529,4.9075082 L10.6982353,4.91665574 C10.5229412,4.72986885 10.2761765,4.61183607 10.0002941,4.61183607 C9.72382353,4.61183607 9.47647059,4.73045902 9.30117647,4.91783607 L9.29088235,4.9075082 L4.61823529,9.59488525 L2.62823529,7.59806557 C2.59911765,7.56501639 2.56823529,7.53403279 2.535,7.50481967 L2.535,7.50481967 Z M16.7567647,9.9817377 L16.7567647,10.0097705 L16.7288235,10.0097705 L16.7567647,9.9817377 L16.7567647,9.9817377 Z" id="Shape"></path>
                            <ellipse id="Oval" cx="1.86705882" cy="4.1695082" rx="1.77705882" ry="1.78288525"></ellipse>
                            <ellipse id="Oval" cx="18.0435294" cy="4.1695082" rx="1.77705882" ry="1.78288525"></ellipse>
                            <ellipse id="Oval" cx="10.1023529" cy="1.80885246" rx="1.77705882" ry="1.78288525"></ellipse>
                        </g>
                    </g>
                </g>
            </g>
        </g>
    </g>
</svg>