<?xml version="1.0" encoding="UTF-8"?>
<svg width="30px" height="30px" viewBox="0 0 30 30" version="1.1" xmlns="http://www.w3.org/2000/svg" xmlns:xlink="http://www.w3.org/1999/xlink">
    <!-- Generator: Sketch 44 (41411) - http://www.bohemiancoding.com/sketch -->
    <title>tip</title>
    <desc>Created with Sketch.</desc>
    <defs></defs>
    <g id="-" stroke="none" stroke-width="1" fill="none" fill-rule="evenodd">
        <g id="tip">
            <g id="results">
                <g id="Group-2">
                    <rect id="Button" x="0" y="0" width="30" height="30"></rect>
                    <g id="fi-key" transform="translate(2.000000, 7.000000)" fill="#FF7400">
                        <g id="Layer_1">
                            <path d="M25.4942529,5.78814286 C25.4821841,5.66676495 25.4321847,5.54827698 25.339657,5.45522058 C25.2327617,5.34800342 25.0931081,5.29425035 24.9534546,5.29425035 L23.4689889,5.29425035 L22.8037666,5.29425035 L13.6113435,5.29425035 C12.8639383,2.41354782 10.2625315,0.279030487 7.16716475,0.279030487 C3.49048287,0.279030487 0.5,3.28660183 0.5,6.98429332 C0.5,10.6828518 3.49048287,13.6895561 7.16716475,13.6895561 C10.45592,13.6895561 13.1880726,11.2816495 13.7303077,8.12871366 L16.2561407,8.12871366 L16.2561407,9.58351467 L16.2561407,10.8909282 L16.2561407,11.7460645 L16.2601637,11.7460645 C16.2808531,12.0295687 16.5141837,12.2541178 16.8021115,12.2541178 C16.8095826,12.2541178 16.8161918,12.2523838 16.8236629,12.2520948 L16.8236629,12.2552738 L18.5765164,12.2552738 L18.5765164,12.2544068 C18.8644441,12.2546958 19.0977747,12.0301466 19.1184642,11.7463535 L19.1230618,11.7463535 L19.1230618,9.58380367 L19.1230618,9.58380367 L19.1230618,8.12900266 L20.5537925,8.12900266 L20.5537925,12.5670994 L20.5537925,12.5670994 L20.5537925,13.7219236 L20.5581028,13.7219236 C20.5796543,14.0057167 20.8124102,14.2299769 21.1003379,14.2305549 C21.1023494,14.2305549 21.1043609,14.2299769 21.1063723,14.2299769 L22.862674,14.2299769 C22.8646855,14.2299769 22.8666969,14.2305549 22.8687084,14.2305549 C23.1563488,14.2299769 23.3893921,14.0057167 23.4109436,13.7219236 L23.4152538,13.7219236 L23.4152538,11.5596627 L23.4152538,11.5596627 L23.4152538,8.12871366 L23.4695636,8.12871366 L24.9540293,8.12871366 L24.9540293,8.12813567 C25.0936828,8.12813567 25.2333364,8.07438259 25.3402317,7.96687644 C25.4465523,7.85937029 25.4997126,7.71920769 25.5,7.57875611 L25.4997126,7.57875611 L25.4997126,5.78785387 L25.4942529,5.78785387 L25.4942529,5.78814286 Z M7.16716475,10.8764785 C5.05856829,10.8764785 3.34307077,9.15002212 3.34307077,7.02966554 C3.34307077,4.90901996 5.05856829,3.18285261 7.16716475,3.18285261 C9.27547385,3.18285261 10.9901093,4.90901996 10.9901093,7.02966554 C10.9903967,9.15031111 9.27547385,10.8764785 7.16716475,10.8764785 L7.16716475,10.8764785 Z" id="Shape"></path>
                        </g>
                    </g>
                </g>
            </g>
        </g>
    </g>
</svg>