<?xml version="1.0" encoding="UTF-8"?>
<svg width="30px" height="30px" viewBox="0 0 30 30" version="1.1" xmlns="http://www.w3.org/2000/svg" xmlns:xlink="http://www.w3.org/1999/xlink">
    <!-- Generator: Sketch 44 (41411) - http://www.bohemiancoding.com/sketch -->
    <title>tip-hover</title>
    <desc>Created with Sketch.</desc>
    <defs></defs>
    <g id="-" stroke="none" stroke-width="1" fill="none" fill-rule="evenodd">
        <g id="tip-hover">
            <g id="KEY_2">
                <g id="Group-2">
                    <g id="Default-Button-Copy">
                        <g id="Group-3">
                            <rect id="Button" x="0" y="0" width="30" height="30"></rect>
                            <g id="fi-key-copy" transform="translate(4.000000, 9.000000)" fill="#FFFFFF">
                                <g id="Layer_1">
                                    <path d="M21.9111241,4.82954402 C21.900544,4.7231385 21.8567122,4.61926644 21.7755981,4.53768887 C21.6818887,4.44369733 21.5594619,4.39657488 21.4370351,4.39657488 L20.1356834,4.39657488 L19.5525187,4.39657488 L11.4940133,4.39657488 C10.8388031,1.87121713 8.55828893,0 5.84474657,0 C2.62159631,9.00067519e-16 0,2.63657686 0,5.87814512 C0,9.12047342 2.62159631,11.7562902 5.84474657,11.7562902 C8.72782236,11.7562902 11.1229543,9.64540733 11.5983028,6.88139719 L13.8125655,6.88139719 L13.8125655,8.15674339 L13.8125655,9.30288289 L13.8125655,10.0525351 L13.8160922,10.0525351 C13.8342295,10.301068 14.038778,10.4979183 14.2911888,10.4979183 C14.2977384,10.4979183 14.3035322,10.4963982 14.3100818,10.4961448 L14.3100818,10.4989316 L15.8467146,10.4989316 L15.8467146,10.4981716 C16.0991254,10.4984249 16.3036739,10.3015747 16.3218112,10.0527885 L16.3258417,10.0527885 L16.3258417,8.15699674 L16.3258417,8.15699674 L16.3258417,6.88165054 L17.5800868,6.88165054 L17.5800868,10.7722925 L17.5800868,10.7722925 L17.5800868,11.784665 L17.5838654,11.784665 C17.6027584,12.0334513 17.8068031,12.2300482 18.0592139,12.2305549 C18.0609773,12.2305549 18.0627406,12.2300482 18.064504,12.2300482 L19.6041596,12.2300482 C19.605923,12.2300482 19.6076863,12.2305549 19.6094497,12.2305549 C19.8616086,12.2300482 20.0659052,12.0334513 20.0847982,11.784665 L20.0885768,11.784665 L20.0885768,9.88912665 L20.0885768,9.88912665 L20.0885768,6.88139719 L20.1361873,6.88139719 L21.4375389,6.88139719 L21.4375389,6.8808905 C21.5599657,6.8808905 21.6823925,6.83376806 21.7761019,6.73952316 C21.8693075,6.64527827 21.9159103,6.52240523 21.9161622,6.39927884 L21.9159103,6.39927884 L21.9159103,4.82929068 L21.9111241,4.82929068 L21.9111241,4.82954402 Z M5.84474657,9.29021556 C3.99625289,9.29021556 2.49236801,7.77672367 2.49236801,5.91792052 C2.49236801,4.05886402 3.99625289,2.54562547 5.84474657,2.54562547 C7.69298834,2.54562547 9.1961175,4.05886402 9.1961175,5.91792052 C9.1963694,7.77697701 7.69298834,9.29021556 5.84474657,9.29021556 L5.84474657,9.29021556 Z" id="Shape"></path>
                                </g>
                            </g>
                        </g>
                    </g>
                </g>
            </g>
        </g>
    </g>
</svg>